<svg width="15" height="15" viewBox="0 0 15 15" fill="none" xmlns="http://www.w3.org/2000/svg">
<path d="M10.7391 6.83719C10.6632 6.66938 10.4963 6.5625 10.3126 6.5625H8.43756V0.46875C8.43756 0.21 8.22756 0 7.96881 0H6.09381C5.83506 0 5.62506 0.21 5.62506 0.46875V6.5625H3.75006C3.56631 6.5625 3.39943 6.67031 3.32349 6.83719C3.24662 7.005 3.27662 7.20094 3.39756 7.33969L6.67881 11.0897C6.76787 11.1919 6.89631 11.25 7.03131 11.25C7.16631 11.25 7.29474 11.1909 7.38381 11.0897L10.6651 7.33969C10.7869 7.20188 10.8151 7.005 10.7391 6.83719Z" fill="#ECECEC"/>
<path d="M12.1875 10.3125V13.125H1.875V10.3125H0V14.0625C0 14.5809 0.42 15 0.9375 15H13.125C13.6434 15 14.0625 14.5809 14.0625 14.0625V10.3125H12.1875Z" fill="#ECECEC"/>
</svg>
