<svg width="20" height="15" viewBox="0 0 20 15" fill="none" xmlns="http://www.w3.org/2000/svg">
<path d="M17.9615 0H1.73076C1.46433 0 1.21491 0.0655001 0.989258 0.173462L9.80768 8.99189L11.7842 7.09239C11.7842 7.09239 11.7843 7.09219 11.7844 7.09212C11.7844 7.09204 11.7846 7.09196 11.7846 7.09196L18.7033 0.173615C18.4776 0.0655769 18.228 0 17.9615 0Z" fill="#ECECEC"/>
<path d="M19.5192 0.989532L13.0083 7.50007L19.519 14.0107C19.6269 13.7851 19.6924 13.5356 19.6924 13.2692V1.73076C19.6924 1.46449 19.6271 1.21511 19.5192 0.989532Z" fill="#ECECEC"/>
<path d="M0.173462 0.989258C0.0655 1.21491 0 1.46433 0 1.73076V13.2692C0 13.5355 0.0654231 13.785 0.173308 14.0105L6.68419 7.49999L0.173462 0.989258Z" fill="#ECECEC"/>
<path d="M12.1924 8.31587L10.2156 10.2156C10.1029 10.3283 9.95532 10.3846 9.80775 10.3846C9.66017 10.3846 9.51251 10.3283 9.39986 10.2156L7.50001 8.3158L0.989014 14.8264C1.21471 14.9344 1.46428 15 1.73078 15H17.9616C18.228 15 18.4774 14.9345 18.7031 14.8265L12.1924 8.31587Z" fill="#ECECEC"/>
</svg>
