<svg width="41" height="40" viewBox="0 0 41 40" fill="none" xmlns="http://www.w3.org/2000/svg">
<path d="M20.4226 0C9.14538 0 0 9.18112 0 20.5069C0 29.5655 5.85182 37.2504 13.9708 39.9644C14.9921 40.1534 15.3648 39.5202 15.3648 38.9764C15.3648 38.4887 15.347 37.1994 15.3368 35.4888C9.65601 36.727 8.45603 32.739 8.45603 32.739C7.52924 30.3697 6.18883 29.7391 6.18883 29.7391C4.33269 28.4676 6.3267 28.4931 6.3267 28.4931C8.37688 28.6387 9.45431 30.6071 9.45431 30.6071C11.2773 33.7399 14.2364 32.836 15.4006 32.3101C15.5844 30.985 16.1129 30.0812 16.6976 29.568C12.1632 29.0497 7.39392 27.2906 7.39392 19.4346C7.39392 17.1955 8.1905 15.3649 9.49771 13.93C9.2858 13.4117 8.58624 11.3258 9.69686 8.50454C9.69686 8.50454 11.4126 7.95306 15.3138 10.6058C16.9427 10.1513 18.6891 9.92409 20.4277 9.91643C22.1613 9.92664 23.9102 10.1513 25.5417 10.6083C29.4404 7.95561 31.1535 8.50709 31.1535 8.50709C32.2667 11.3309 31.5671 13.4142 31.3578 13.9325C32.6675 15.3674 33.4565 17.198 33.4565 19.4371C33.4565 27.3136 28.6821 29.0472 24.1324 29.5552C24.8651 30.1884 25.5187 31.4395 25.5187 33.3518C25.5187 36.0939 25.4932 38.3049 25.4932 38.9764C25.4932 39.5253 25.8608 40.1636 26.8974 39.9619C35.0037 37.2453 40.8504 29.5629 40.8504 20.5069C40.8504 9.18112 31.705 0 20.4226 0Z" fill="#ECECEC"/>
</svg>
