<svg width="160" height="160" viewBox="0 0 160 160" fill="none" xmlns="http://www.w3.org/2000/svg">
<circle cx="80" cy="80" r="80" fill="#ECECEC"/>
<path d="M122.549 88.0662H54.8066C53.0955 88.0662 51.4545 88.7459 50.2446 89.9557C49.0347 91.1656 48.355 92.8065 48.355 94.5175C48.355 96.2285 49.0347 97.8695 50.2446 99.0793C51.4545 100.289 53.0955 100.969 54.8066 100.969H122.549C124.26 100.969 125.901 100.289 127.11 99.0793C128.32 97.8695 129 96.2285 129 94.5175C129 92.8065 128.32 91.1656 127.11 89.9557C125.901 88.7459 124.26 88.0662 122.549 88.0662Z" fill="#00A3FF"/>
<path d="M56.4194 125.162C56.4194 126.445 56.9292 127.676 57.8367 128.583C58.7441 129.49 59.9748 130 61.2581 130H74.1614V115.484C74.1614 115.057 74.3313 114.646 74.6338 114.344C74.9363 114.042 75.3465 113.872 75.7743 113.872C76.202 113.872 76.6123 114.042 76.9148 114.344C77.2172 114.646 77.3872 115.057 77.3872 115.484V130H87.0646V115.484C87.0646 115.057 87.2345 114.646 87.537 114.344C87.8395 114.042 88.2497 113.872 88.6775 113.872C89.1053 113.872 89.5155 114.042 89.818 114.344C90.1205 114.646 90.2904 115.057 90.2904 115.484V130H99.9678V115.484C99.9678 115.057 100.138 114.646 100.44 114.344C100.743 114.042 101.153 113.872 101.581 113.872C102.008 113.872 102.419 114.042 102.721 114.344C103.024 114.646 103.194 115.057 103.194 115.484V130H116.097C117.38 130 118.611 129.49 119.518 128.583C120.426 127.676 120.936 126.445 120.936 125.162V104.195H56.4194V125.162Z" fill="#00A3FF"/>
<path d="M120.936 70.3249C120.936 69.0417 120.426 67.811 119.518 66.9036C118.611 65.9962 117.38 65.4864 116.097 65.4864H103.194V60.6479C103.194 59.3646 102.684 58.1339 101.776 57.2265C100.869 56.3191 99.6382 55.8093 98.3549 55.8093H79.0001C77.7168 55.8093 76.486 56.3191 75.5786 57.2265C74.6712 58.1339 74.1614 59.3646 74.1614 60.6479V65.4864H61.2581C59.9748 65.4864 58.7441 65.9962 57.8367 66.9036C56.9292 67.811 56.4194 69.0417 56.4194 70.3249V84.8405H120.936V70.3249ZM77.3872 60.6479C77.3872 60.2201 77.5571 59.8099 77.8596 59.5074C78.1621 59.2049 78.5723 59.035 79.0001 59.035H98.3549C98.7827 59.035 99.1929 59.2049 99.4954 59.5074C99.7979 59.8099 99.9678 60.2201 99.9678 60.6479V65.4864H77.3872V60.6479ZM98.3549 78.3891H79.0001C78.5723 78.3891 78.1621 78.2192 77.8596 77.9167C77.5571 77.6143 77.3872 77.204 77.3872 76.7763C77.3872 76.3485 77.5571 75.9383 77.8596 75.6358C78.1621 75.3334 78.5723 75.1635 79.0001 75.1635H98.3549C98.7827 75.1635 99.1929 75.3334 99.4954 75.6358C99.7979 75.9383 99.9678 76.3485 99.9678 76.7763C99.9678 77.204 99.7979 77.6143 99.4954 77.9167C99.1929 78.2192 98.7827 78.3891 98.3549 78.3891Z" fill="#00A3FF"/>
<path d="M30.6129 44.5193H33.921C33.5084 48.6335 34.6918 52.749 37.2266 56.0157C39.7615 59.2825 43.4543 61.4509 47.5422 62.0732C51.63 62.6955 55.8008 61.724 59.193 59.3595C62.5851 56.995 64.9395 53.418 65.7699 49.3674C66.6003 45.3168 65.8433 41.102 63.6551 37.5936C61.467 34.0852 58.0149 31.5511 54.0119 30.5148C50.0089 29.4785 45.7607 30.0191 42.1449 32.025C38.5291 34.031 35.8218 37.3489 34.5823 41.2936H30.6129C30.1851 41.2936 29.7749 41.4635 29.4724 41.766C29.1699 42.0684 29 42.4787 29 42.9064C29 43.3342 29.1699 43.7444 29.4724 44.0469C29.7749 44.3493 30.1851 44.5193 30.6129 44.5193ZM49.9677 59.0349C48.1343 59.0455 46.3198 58.663 44.6467 57.9132C42.9735 57.1633 41.4805 56.0636 40.2683 54.688C39.0561 53.3125 38.1528 51.6931 37.6194 49.939C37.0859 48.1849 36.9347 46.3368 37.1758 44.5193H62.7597C63.0008 46.3368 62.8496 48.1849 62.3161 49.939C61.7826 51.6931 60.8794 53.3125 59.6672 54.688C58.455 56.0636 56.962 57.1633 55.2888 57.9132C53.6157 58.663 51.8012 59.0455 49.9677 59.0349ZM49.9677 33.2294C52.5361 33.233 55.0451 34.0021 57.1743 35.4385C59.3034 36.8749 60.956 38.9134 61.921 41.2936H38.0145C38.9795 38.9134 40.6321 36.8749 42.7612 35.4385C44.8903 34.0021 47.3993 33.233 49.9677 33.2294Z" fill="#151A6A"/>
<path d="M88.6774 65.4863C84.5372 65.491 80.4908 66.7196 77.047 69.0177C73.6032 71.3158 70.9157 74.5807 69.3226 78.402C67.4587 73.9288 64.1028 70.2393 59.8257 67.961C55.5486 65.6827 50.6143 64.9562 45.8619 65.9051C41.1096 66.854 36.8328 69.4197 33.7586 73.1659C30.6845 76.912 29.003 81.6073 29 86.4533V105.807C29 107.091 29.5098 108.321 30.4172 109.229C31.3247 110.136 32.5554 110.646 33.8387 110.646H66.0968C67.291 110.642 68.4408 110.193 69.3226 109.388C70.2043 110.193 71.3542 110.642 72.5484 110.646H104.806C106.09 110.646 107.32 110.136 108.228 109.229C109.135 108.321 109.645 107.091 109.645 105.807V86.4533C109.639 80.8945 107.428 75.5652 103.497 71.6345C99.5659 67.7038 94.2364 65.4927 88.6774 65.4863ZM66.0968 107.42H62.871V86.4533C62.871 86.0255 62.701 85.6153 62.3986 85.3128C62.0961 85.0104 61.6858 84.8405 61.2581 84.8405C60.8303 84.8405 60.42 85.0104 60.1176 85.3128C59.8151 85.6153 59.6452 86.0255 59.6452 86.4533V107.42H40.2903V86.4533C40.2903 86.0255 40.1204 85.6153 39.8179 85.3128C39.5154 85.0104 39.1052 84.8405 38.6774 84.8405C38.2496 84.8405 37.8394 85.0104 37.5369 85.3128C37.2344 85.6153 37.0645 86.0255 37.0645 86.4533V107.42H33.8387C33.4109 107.42 33.0007 107.25 32.6982 106.948C32.3957 106.645 32.2258 106.235 32.2258 105.807V86.4533C32.2258 81.748 34.095 77.2355 37.4223 73.9083C40.7496 70.5812 45.2623 68.712 49.9677 68.712C54.6732 68.712 59.1859 70.5812 62.5132 73.9083C65.8404 77.2355 67.7097 81.748 67.7097 86.4533V105.807C67.7097 106.235 67.5397 106.645 67.2373 106.948C66.9348 107.25 66.5245 107.42 66.0968 107.42ZM106.419 105.807C106.419 106.235 106.249 106.645 105.947 106.948C105.644 107.25 105.234 107.42 104.806 107.42H101.581V86.4533C101.581 86.0255 101.411 85.6153 101.108 85.3128C100.806 85.0104 100.395 84.8405 99.9677 84.8405C99.54 84.8405 99.1297 85.0104 98.8272 85.3128C98.5247 85.6153 98.3548 86.0255 98.3548 86.4533V107.42H79V86.4533C79 86.0255 78.8301 85.6153 78.5276 85.3128C78.2251 85.0104 77.8149 84.8405 77.3871 84.8405C76.9593 84.8405 76.5491 85.0104 76.2466 85.3128C75.9441 85.6153 75.7742 86.0255 75.7742 86.4533V107.42H72.5484C72.1206 107.42 71.7104 107.25 71.4079 106.948C71.1054 106.645 70.9355 106.235 70.9355 105.807V86.4533C70.9355 81.748 72.8047 77.2355 76.132 73.9083C79.4592 70.5812 83.972 68.712 88.6774 68.712C93.3829 68.712 97.8956 70.5812 101.223 73.9083C104.55 77.2355 106.419 81.748 106.419 86.4533V105.807Z" fill="#151A6A"/>
<path d="M88.6774 62.2605C92.9537 62.2558 97.0534 60.5551 100.077 57.5314C103.101 54.5078 104.802 50.4082 104.806 46.1321C104.806 45.587 104.777 45.0483 104.724 44.5193H108.032C108.46 44.5193 108.87 44.3493 109.173 44.0469C109.475 43.7444 109.645 43.3342 109.645 42.9064C109.645 42.4787 109.475 42.0684 109.173 41.766C108.87 41.4635 108.46 41.2936 108.032 41.2936H104.061C103.167 38.4499 101.502 35.9096 99.2512 33.9549C97.0004 32.0003 94.2519 30.7076 91.3108 30.2205C88.3697 29.7333 85.3512 30.0708 82.5904 31.1954C79.8295 32.3201 77.4344 34.1878 75.6709 36.5913C73.9074 38.9948 72.8445 41.84 72.6003 44.811C72.3562 47.782 72.9402 50.7626 74.2876 53.4217C75.635 56.0809 77.693 58.3146 80.2332 59.8749C82.7734 61.4352 85.6963 62.261 88.6774 62.2605ZM88.6774 33.2294C91.2458 33.2332 93.7547 34.0024 95.8838 35.4388C98.0129 36.8752 99.6655 38.9135 100.631 41.2936H76.7242C77.6892 38.9134 79.3417 36.8749 81.4709 35.4385C83.6 34.0021 86.109 33.233 88.6774 33.2294ZM75.8855 44.5193H101.468C101.54 45.0539 101.577 45.5926 101.581 46.1321C101.591 47.901 101.238 49.6532 100.542 51.2797C99.8472 52.9063 98.8249 54.3726 97.539 55.5874C96.2531 56.8022 94.7312 57.7397 93.0677 58.3415C91.4043 58.9434 89.6348 59.1968 87.8693 59.0859C86.1038 58.9751 84.3799 58.5025 82.8048 57.6973C81.2296 56.8922 79.8368 55.7718 78.713 54.4057C77.5891 53.0396 76.7582 51.4571 76.2718 49.7563C75.7854 48.0556 75.6539 46.273 75.8855 44.5193Z" fill="#151A6A"/>
</svg>
