<svg width="160" height="160" viewBox="0 0 160 160" fill="none" xmlns="http://www.w3.org/2000/svg">
<circle cx="80" cy="80" r="80" fill="#ECECEC"/>
<path d="M99.6972 68.7109C98.0423 68.7092 96.404 69.0406 94.8799 69.6854C93.3558 70.3303 91.9771 71.2753 90.826 72.4643C90.516 72.7617 90.1031 72.9278 89.6735 72.9278C89.2439 72.9278 88.831 72.7617 88.5211 72.4643C87.3707 71.2761 85.993 70.3315 84.4701 69.6867C82.9472 69.0419 81.3101 68.71 79.6563 68.7109C76.288 68.7552 73.0747 70.133 70.7207 72.5424C68.3666 74.9518 67.0638 78.1962 67.0978 81.5646C67.0978 96.715 85.6919 108.138 89.6791 110.415C93.668 108.138 112.26 96.715 112.26 81.5646C112.295 78.1953 110.992 74.9499 108.636 72.5402C106.281 70.1306 103.066 68.7535 99.6972 68.7109Z" fill="#00A3FF"/>
<path d="M124.151 110.582C129.266 102.15 131.114 92.1367 129.347 82.4347C127.581 72.7328 122.321 64.014 114.563 57.9265C106.804 51.8389 97.0848 48.8042 87.241 49.396C77.3973 49.9877 68.1113 54.1649 61.1381 61.1381C54.1649 68.1113 49.9877 77.3973 49.396 87.241C48.8042 97.0848 51.8389 106.804 57.9265 114.563C64.014 122.321 72.7328 127.581 82.4347 129.347C92.1367 131.114 102.15 129.266 110.582 124.151L127.877 129.916C128.161 130.011 128.466 130.024 128.757 129.956C129.049 129.887 129.315 129.738 129.527 129.527C129.739 129.315 129.887 129.049 129.956 128.757C130.025 128.466 130.012 128.161 129.918 127.877L124.151 110.582ZM90.4212 113.688C90.1911 113.808 89.9355 113.871 89.676 113.871C89.4166 113.871 89.161 113.808 88.9309 113.688C87.905 113.156 63.872 100.412 63.872 81.5645C63.8389 77.3409 65.4819 73.2765 68.4407 70.2623C71.3996 67.2481 75.4329 65.5301 79.6564 65.485C83.3242 65.4762 86.8761 66.7697 89.6793 69.1351C92.4812 66.7708 96.0312 65.4774 99.6973 65.485C103.922 65.5284 107.957 67.2457 110.917 70.2601C113.877 73.2745 115.52 77.3399 115.487 81.5645C115.487 100.412 91.4535 113.156 90.4212 113.688Z" fill="#00A3FF"/>
<path d="M60.6461 100.97H54.1943C53.7665 100.97 53.3562 101.14 53.0537 101.442C52.7512 101.745 52.5813 102.155 52.5813 102.583C52.5813 103.011 52.7512 103.421 53.0537 103.723C53.3562 104.026 53.7665 104.196 54.1943 104.196H60.6461C61.0738 104.196 61.4841 104.026 61.7866 103.723C62.0891 103.421 62.259 103.011 62.259 102.583C62.259 102.155 62.0891 101.745 61.7866 101.442C61.4841 101.14 61.0738 100.97 60.6461 100.97Z" fill="#151A6A"/>
<path d="M63.8719 38.0649C63.8719 37.6371 63.7019 37.2268 63.3995 36.9243C63.097 36.6218 62.6867 36.4519 62.2589 36.4519H52.5812C52.1534 36.4519 51.7432 36.6218 51.4407 36.9243C51.1382 37.2268 50.9683 37.6371 50.9683 38.0649C50.9683 38.4926 51.1382 38.9029 51.4407 39.2054C51.7432 39.5079 52.1534 39.6778 52.5812 39.6778H62.2589C62.6867 39.6778 63.097 39.5079 63.3995 39.2054C63.7019 38.9029 63.8719 38.4926 63.8719 38.0649Z" fill="#151A6A"/>
<path d="M86.4533 41.2907C85.9082 41.2907 85.3759 41.3374 84.8404 41.3729V34.8389C84.8404 33.5555 84.3306 32.3247 83.4231 31.4173C82.5157 30.5098 81.2849 30 80.0015 30H34.8389C33.5555 30 32.3247 30.5098 31.4173 31.4173C30.5098 32.3247 30 33.5555 30 34.8389V105.809C30 107.092 30.5098 108.323 31.4173 109.23C32.3247 110.138 33.5555 110.648 34.8389 110.648H80.0015C81.2849 110.648 82.5157 110.138 83.4231 109.23C84.3306 108.323 84.8404 107.092 84.8404 105.809V89.6792H86.4533C92.8701 89.6792 99.024 87.1302 103.561 82.5929C108.099 78.0556 110.648 71.9017 110.648 65.485C110.648 59.0682 108.099 52.9143 103.561 48.377C99.024 43.8397 92.8701 41.2907 86.4533 41.2907ZM80.0015 107.422H34.8389C34.4111 107.422 34.0008 107.252 33.6983 106.949C33.3958 106.647 33.2259 106.237 33.2259 105.809V97.744H81.6145V105.809C81.6145 106.237 81.4445 106.647 81.1421 106.949C80.8396 107.252 80.4293 107.422 80.0015 107.422ZM81.6145 94.5181H33.2259V34.8389C33.2259 34.4111 33.3958 34.0008 33.6983 33.6983C34.0008 33.3958 34.4111 33.2259 34.8389 33.2259H80.0015C80.4293 33.2259 80.8396 33.3958 81.1421 33.6983C81.4445 34.0008 81.6145 34.4111 81.6145 34.8389V41.7746C78.2374 42.457 75.0455 43.8546 72.2534 45.8732C69.4613 47.8919 67.1337 50.4849 65.4271 53.4779C63.7205 56.4709 62.6744 59.7946 62.3591 63.2255C62.0439 66.6565 62.4668 70.1152 63.5994 73.3691L56.004 87.2937C55.87 87.5394 55.8021 87.8157 55.8072 88.0955C55.8123 88.3753 55.8901 88.649 56.0329 88.8897C56.1758 89.1303 56.3788 89.3296 56.622 89.4681C56.8653 89.6065 57.1403 89.6793 57.4202 89.6792H81.6145V94.5181ZM86.4533 86.4533H60.138L66.7753 74.2739C66.8865 74.0695 66.9522 73.8434 66.9678 73.6112C66.9834 73.379 66.9485 73.1462 66.8656 72.9287C65.2806 68.7499 65.073 64.1738 66.2731 59.8686C67.4733 55.5635 70.0183 51.7547 73.5366 48.9986C77.0549 46.2424 81.3622 44.6832 85.8295 44.5487C90.2968 44.4141 94.6902 45.7112 98.368 48.2506C102.046 50.79 104.815 54.4387 106.273 58.6638C107.73 62.889 107.798 67.4693 106.467 71.7359C105.136 76.0025 102.477 79.732 98.876 82.3798C95.2754 85.0275 90.9227 86.4549 86.4533 86.4533Z" fill="#151A6A"/>
<path d="M92.9052 55.8071H80.0016C79.5738 55.8071 79.1636 55.9771 78.8611 56.2796C78.5586 56.582 78.3887 56.9923 78.3887 57.4201C78.3887 57.8479 78.5586 58.2581 78.8611 58.5606C79.1636 58.8631 79.5738 59.033 80.0016 59.033H92.9052C93.333 59.033 93.7433 58.8631 94.0458 58.5606C94.3483 58.2581 94.5182 57.8479 94.5182 57.4201C94.5182 56.9923 94.3483 56.582 94.0458 56.2796C93.7433 55.9771 93.333 55.8071 92.9052 55.8071Z" fill="#151A6A"/>
<path d="M92.9052 63.8721H80.0016C79.5738 63.8721 79.1636 64.042 78.8611 64.3445C78.5586 64.647 78.3887 65.0572 78.3887 65.485C78.3887 65.9128 78.5586 66.3231 78.8611 66.6256C79.1636 66.928 79.5738 67.098 80.0016 67.098H92.9052C93.333 67.098 93.7433 66.928 94.0458 66.6256C94.3483 66.3231 94.5182 65.9128 94.5182 65.485C94.5182 65.0572 94.3483 64.647 94.0458 64.3445C93.7433 64.042 93.333 63.8721 92.9052 63.8721Z" fill="#151A6A"/>
<path d="M92.9052 71.9368H80.0016C79.5738 71.9368 79.1636 72.1067 78.8611 72.4092C78.5586 72.7117 78.3887 73.1219 78.3887 73.5497C78.3887 73.9775 78.5586 74.3878 78.8611 74.6903C79.1636 74.9927 79.5738 75.1627 80.0016 75.1627H92.9052C93.333 75.1627 93.7433 74.9927 94.0458 74.6903C94.3483 74.3878 94.5182 73.9775 94.5182 73.5497C94.5182 73.1219 94.3483 72.7117 94.0458 72.4092C93.7433 72.1067 93.333 71.9368 92.9052 71.9368Z" fill="#151A6A"/>
</svg>
