<svg width="160" height="160" viewBox="0 0 160 160" fill="none" xmlns="http://www.w3.org/2000/svg">
<circle cx="80" cy="80" r="80" fill="#ECECEC"/>
<path d="M73.361 79.2201C74.8559 79.2305 76.2938 78.6474 77.3593 77.5988C78.4247 76.5502 79.0306 75.1218 79.0441 73.6269V64.3049C79.0441 62.7976 78.4453 61.3521 77.3796 60.2864C76.3138 59.2206 74.8683 58.6218 73.361 58.6218C71.8538 58.6218 70.4083 59.2206 69.3425 60.2864C68.2767 61.3521 67.678 62.7976 67.678 64.3049V73.6269C67.6914 75.1218 68.2973 76.5502 69.3628 77.5988C70.4282 78.6474 71.8662 79.2305 73.361 79.2201Z" fill="#00A3FF"/>
<path d="M130.19 73.627H115.036C113.552 73.627 112.13 74.2163 111.081 75.2652C110.032 76.3141 109.442 77.7368 109.442 79.2202C109.442 80.7036 110.032 82.1263 111.081 83.1752C112.13 84.2241 113.552 84.8134 115.036 84.8134H122.614C123.108 84.8134 123.582 85.0099 123.932 85.3595C124.282 85.7091 124.478 86.1834 124.478 86.6778C124.478 87.1723 124.282 87.6465 123.932 87.9962C123.582 88.3458 123.108 88.5422 122.614 88.5422C119.126 88.5188 115.771 89.8795 113.285 92.3261C110.799 94.7727 109.385 98.1053 109.353 101.593C109.338 102.086 109.132 102.553 108.778 102.896C108.425 103.239 107.951 103.431 107.458 103.431C106.966 103.431 106.492 103.239 106.139 102.896C105.785 102.553 105.579 102.086 105.564 101.593C105.573 98.9673 106.202 96.3807 107.4 94.0441C108.597 91.7074 110.331 89.687 112.458 88.1473C110.492 87.6152 108.754 86.4547 107.51 84.8429C106.265 83.2312 105.582 81.2565 105.564 79.2202C105.571 78.5005 105.663 77.7842 105.839 77.0863C104.223 77.4831 102.53 77.4409 100.935 76.9641C99.3409 76.4874 97.9027 75.5933 96.7695 74.3744C96.0798 75.6112 95.1207 76.6769 93.9634 77.4929C92.806 78.3089 91.48 78.8541 90.0835 79.0883C88.6869 79.3225 87.2556 79.2396 85.8953 78.8459C84.5351 78.4521 83.2809 77.7575 82.2254 76.8134C81.7095 78.1911 80.8791 79.4293 79.8002 80.4294C78.7213 81.4295 77.4239 82.1639 76.0111 82.574C74.5983 82.9842 73.1093 83.0589 71.6626 82.7921C70.2159 82.5252 68.8515 81.9243 67.678 81.0372V105.12C67.6784 105.438 67.7606 105.751 67.9168 106.028C68.0729 106.305 68.2977 106.537 68.5695 106.702L80.161 113.832C80.9769 114.327 81.6513 115.023 82.1193 115.854C82.5872 116.686 82.8328 117.624 82.8322 118.578V122.441H81.2373C79.8887 122.441 78.5954 122.976 77.6418 123.93C76.6883 124.883 76.1526 126.177 76.1526 127.525V130.915C76.1526 132.264 76.6883 133.557 77.6418 134.511C78.5954 135.464 79.8887 136 81.2373 136H118.525C119.874 136 121.167 135.464 122.121 134.511C123.074 133.557 123.61 132.264 123.61 130.915V127.525C123.61 126.177 123.074 124.883 122.121 123.93C121.167 122.976 119.874 122.441 118.525 122.441H116.931V118.574C116.93 117.621 117.175 116.683 117.643 115.852C118.111 115.02 118.785 114.324 119.6 113.829L131.195 106.698C131.466 106.533 131.69 106.302 131.846 106.025C132.001 105.749 132.084 105.437 132.085 105.12V75.4914C132.08 74.9932 131.878 74.5172 131.522 74.1677C131.167 73.8183 130.688 73.6238 130.19 73.627ZM118.525 125.83C118.975 125.83 119.406 126.009 119.724 126.327C120.042 126.645 120.22 127.076 120.22 127.525V130.915C120.22 131.365 120.042 131.796 119.724 132.114C119.406 132.431 118.975 132.61 118.525 132.61H81.2373C80.7878 132.61 80.3567 132.431 80.0388 132.114C79.721 131.796 79.5424 131.365 79.5424 130.915V127.525C79.5424 127.076 79.721 126.645 80.0388 126.327C80.3567 126.009 80.7878 125.83 81.2373 125.83H118.525Z" fill="#00A3FF"/>
<path d="M124.507 69.8983V62.4406C124.481 60.9506 123.871 59.5303 122.808 58.4857C121.745 57.4411 120.315 56.8557 118.825 56.8557C117.334 56.8557 115.904 57.4411 114.841 58.4857C113.778 59.5303 113.168 60.9506 113.142 62.4406V69.8983H124.507Z" fill="#00A3FF"/>
<path d="M88.5153 75.4914C90.0102 75.5018 91.4481 74.9187 92.5136 73.8701C93.579 72.8215 94.1849 71.393 94.1984 69.8981V60.5761C94.1984 59.0689 93.5996 57.6234 92.5338 56.5576C91.4681 55.4918 90.0226 54.8931 88.5153 54.8931C87.0081 54.8931 85.5626 55.4918 84.4968 56.5576C83.431 57.6234 82.8323 59.0689 82.8323 60.5761V69.8981C82.8457 71.393 83.4516 72.8215 84.5171 73.8701C85.5825 74.9187 87.0204 75.5018 88.5153 75.4914Z" fill="#00A3FF"/>
<path d="M103.669 73.627C105.164 73.6374 106.602 73.0543 107.668 72.0057C108.733 70.9571 109.339 69.5286 109.352 68.0338V56.8474C109.352 55.3401 108.754 53.8946 107.688 52.8288C106.622 51.7631 105.177 51.1643 103.669 51.1643C102.162 51.1643 100.717 51.7631 99.6509 52.8288C98.5851 53.8946 97.9863 55.3401 97.9863 56.8474V68.0338C97.9998 69.5286 98.6057 70.9571 99.6711 72.0057C100.737 73.0543 102.175 73.6374 103.669 73.627Z" fill="#00A3FF"/>
<path d="M106.661 58.0339H72.7627C71.5078 58.0383 70.2994 58.5096 69.3729 59.356C68.4463 58.5096 67.238 58.0383 65.9831 58.0339H32.0847C30.7362 58.0339 29.4429 58.5696 28.4893 59.5232C27.5357 60.4768 27 61.7701 27 63.1187V83.4577C27 84.8062 27.5357 86.0995 28.4893 87.0531C29.4429 88.0067 30.7362 88.5424 32.0847 88.5424H33.5068C33.8052 88.5415 34.0985 88.6194 34.3571 88.7682C34.6157 88.917 34.8305 89.1315 34.9797 89.3899L39.8068 97.8373C40.2514 98.6164 40.8938 99.2642 41.6691 99.7154C42.4444 100.167 43.325 100.405 44.222 100.407H56.661C58.0427 100.406 59.3983 100.03 60.5829 99.3189C61.7675 98.6077 62.7367 97.5881 63.3869 96.3689C64.0371 95.1498 64.3439 93.7769 64.2746 92.3969C64.2053 91.017 63.7624 89.6818 62.9932 88.5339C64.2453 88.4697 65.4673 88.1276 66.5708 87.5325C67.6742 86.9374 68.6314 86.1041 69.3729 85.0933C70.1144 86.1041 71.0716 86.9374 72.175 87.5325C73.2785 88.1276 74.5005 88.4697 75.7525 88.5339C74.9834 89.6818 74.5405 91.017 74.4712 92.3969C74.4018 93.7769 74.7086 95.1498 75.3589 96.3689C76.0091 97.5881 76.9782 98.6077 78.1629 99.3189C79.3475 100.03 80.703 100.406 82.0847 100.407H94.5237C95.4201 100.406 96.3003 100.168 97.0755 99.7184C97.8507 99.2684 98.4935 98.6219 98.939 97.8441L103.766 89.3899C103.915 89.1315 104.13 88.917 104.389 88.7682C104.647 88.6194 104.941 88.5415 105.239 88.5424H106.661C108.01 88.5424 109.303 88.0067 110.256 87.0531C111.21 86.0995 111.746 84.8062 111.746 83.4577V63.1187C111.746 61.7701 111.21 60.4768 110.256 59.5232C109.303 58.5696 108.01 58.0339 106.661 58.0339ZM62.5932 85.1526C61.2447 85.1526 59.9513 84.6169 58.9978 83.6633C58.0442 82.7097 57.5085 81.4164 57.5085 80.0678V74.9831C57.5085 74.5336 57.3299 74.1025 57.012 73.7846C56.6942 73.4667 56.2631 73.2882 55.8136 73.2882C55.364 73.2882 54.9329 73.4667 54.6151 73.7846C54.2972 74.1025 54.1186 74.5336 54.1186 74.9831V86.8475C54.1186 87.297 54.2972 87.7281 54.6151 88.046C54.9329 88.3638 55.364 88.5424 55.8136 88.5424H56.661C57.7848 88.5424 58.8626 88.9888 59.6572 89.7835C60.4519 90.5781 60.8983 91.6559 60.8983 92.7797C60.8983 93.9035 60.4519 94.9813 59.6572 95.7759C58.8626 96.5706 57.7848 97.017 56.661 97.017H44.222C43.9237 97.0179 43.6303 96.94 43.3717 96.7912C43.1131 96.6424 42.8983 96.4279 42.7492 96.1695L37.922 87.7153C37.4773 86.9387 36.8358 86.293 36.0622 85.8432C35.2886 85.3933 34.4102 85.1551 33.5153 85.1526H32.0847C31.6352 85.1526 31.2041 84.974 30.8863 84.6562C30.5684 84.3383 30.3898 83.9072 30.3898 83.4577V63.1187C30.3898 62.6692 30.5684 62.2381 30.8863 61.9202C31.2041 61.6023 31.6352 61.4238 32.0847 61.4238H65.9831C66.4326 61.4238 66.8637 61.6023 67.1815 61.9202C67.4994 62.2381 67.678 62.6692 67.678 63.1187V80.0678C67.678 81.4164 67.1423 82.7097 66.1887 83.6633C65.2351 84.6169 63.9418 85.1526 62.5932 85.1526ZM108.356 83.4577C108.356 83.9072 108.177 84.3383 107.86 84.6562C107.542 84.974 107.111 85.1526 106.661 85.1526H105.239C104.343 85.1536 103.462 85.3911 102.687 85.841C101.912 86.291 101.269 86.9375 100.824 87.7153L95.9966 96.1695C95.8474 96.4279 95.6327 96.6424 95.374 96.7912C95.1154 96.94 94.8221 97.0179 94.5237 97.017H82.0847C80.9609 97.017 79.8832 96.5706 79.0885 95.7759C78.2939 94.9813 77.8475 93.9035 77.8475 92.7797C77.8475 91.6559 78.2939 90.5781 79.0885 89.7835C79.8832 88.9888 80.9609 88.5424 82.0847 88.5424H82.9322C83.3817 88.5424 83.8128 88.3638 84.1307 88.046C84.4486 87.7281 84.6271 87.297 84.6271 86.8475V74.9831C84.6271 74.5336 84.4486 74.1025 84.1307 73.7846C83.8128 73.4667 83.3817 73.2882 82.9322 73.2882C82.4827 73.2882 82.0516 73.4667 81.7337 73.7846C81.4159 74.1025 81.2373 74.5336 81.2373 74.9831V80.0678C81.2373 81.4164 80.7016 82.7097 79.748 83.6633C78.7944 84.6169 77.5011 85.1526 76.1525 85.1526C74.804 85.1526 73.5107 84.6169 72.5571 83.6633C71.6035 82.7097 71.0678 81.4164 71.0678 80.0678V63.1187C71.0678 62.6692 71.2464 62.2381 71.5642 61.9202C71.8821 61.6023 72.3132 61.4238 72.7627 61.4238H106.661C107.111 61.4238 107.542 61.6023 107.86 61.9202C108.177 62.2381 108.356 62.6692 108.356 63.1187V83.4577Z" fill="#15023C"/>
<path d="M69.3729 49.5593C69.8224 49.5593 70.2535 49.3808 70.5714 49.0629C70.8892 48.745 71.0678 48.3139 71.0678 47.8644V37.6949C71.0678 37.2454 70.8892 36.8143 70.5714 36.4964C70.2535 36.1786 69.8224 36 69.3729 36C68.9234 36 68.4923 36.1786 68.1744 36.4964C67.8565 36.8143 67.678 37.2454 67.678 37.6949V47.8644C67.678 48.3139 67.8565 48.745 68.1744 49.0629C68.4923 49.3808 68.9234 49.5593 69.3729 49.5593Z" fill="#15023C"/>
<path d="M75.6558 52.4525L82.4355 45.6728C82.5974 45.5165 82.7265 45.3295 82.8153 45.1227C82.9042 44.9159 82.9509 44.6935 82.9529 44.4684C82.9548 44.2434 82.9119 44.0202 82.8267 43.8119C82.7415 43.6036 82.6157 43.4144 82.4565 43.2552C82.2974 43.0961 82.1081 42.9702 81.8998 42.885C81.6915 42.7998 81.4683 42.7569 81.2433 42.7589C81.0182 42.7608 80.7958 42.8076 80.5891 42.8964C80.3823 42.9852 80.1952 43.1143 80.0389 43.2762L73.2592 50.0559C72.9505 50.3756 72.7796 50.8037 72.7835 51.2481C72.7874 51.6925 72.9656 52.1176 73.2799 52.4319C73.5941 52.7461 74.0192 52.9244 74.4636 52.9282C74.908 52.9321 75.3362 52.7612 75.6558 52.4525Z" fill="#15023C"/>
<path d="M63.0898 52.4525C63.4095 52.7612 63.8376 52.9321 64.282 52.9282C64.7264 52.9244 65.1515 52.7461 65.4658 52.4319C65.78 52.1176 65.9583 51.6925 65.9622 51.2481C65.966 50.8037 65.7952 50.3756 65.4864 50.0559L58.7068 43.2762C58.5504 43.1143 58.3634 42.9852 58.1566 42.8964C57.9498 42.8076 57.7274 42.7608 57.5024 42.7589C57.2773 42.7569 57.0541 42.7998 56.8458 42.885C56.6375 42.9702 56.4483 43.0961 56.2892 43.2552C56.13 43.4144 56.0042 43.6036 55.9189 43.8119C55.8337 44.0202 55.7908 44.2434 55.7928 44.4684C55.7947 44.6935 55.8415 44.9159 55.9303 45.1227C56.0192 45.3295 56.1483 45.5165 56.3102 45.6728L63.0898 52.4525Z" fill="#15023C"/>
</svg>
