<svg width="16" height="16" viewBox="0 0 16 16" fill="none" xmlns="http://www.w3.org/2000/svg">
<path d="M5.07676 13.5752C4.34467 14.3078 3.15699 14.3078 2.42487 13.5752C1.70377 12.8546 1.69227 11.6924 2.39087 10.9578L6.34288 7.00579C5.12064 6.67898 3.76536 6.97979 2.78827 7.90904L1.03106 9.66625C-0.366155 11.1355 -0.343155 13.4598 1.09906 14.901C2.56327 16.3663 4.93864 16.3663 6.40285 14.901L8.02303 13.2809C9.00506 12.2995 9.32881 10.9088 8.99447 9.65753L5.07676 13.5752Z" fill="#ECECEC"/>
<path d="M14.9013 1.09906C13.4601 -0.343155 11.1357 -0.366155 9.66648 1.03106L7.90926 2.78827C6.98005 3.76539 6.67924 5.12067 7.00602 6.34288L10.958 2.39087C11.6927 1.69227 12.8548 1.70377 13.5754 2.42487C14.3081 3.15699 14.308 4.34464 13.5754 5.07676L9.65772 8.99447C10.909 9.32881 12.2997 9.00509 13.2811 8.02303L14.9012 6.40285C16.3665 4.93864 16.3665 2.56327 14.9013 1.09906V1.09906Z" fill="#ECECEC"/>
<path d="M5.14929 10.8507C5.51535 11.217 6.10919 11.217 6.47522 10.8507L10.8509 6.47497C11.2172 6.10891 11.2172 5.51507 10.8509 5.14904C10.4906 4.78848 9.90952 4.78273 9.54224 5.13204L5.13226 9.54202C4.78298 9.90927 4.78873 10.4904 5.14929 10.8507V10.8507Z" fill="#ECECEC"/>
</svg>
