<svg width="16" height="16" viewBox="0 0 16 16" fill="none" xmlns="http://www.w3.org/2000/svg">
<path d="M15.4283 0H9.14278C8.99124 3.34812e-05 8.84593 0.0602662 8.73879 0.16744L0.167595 8.73864C-0.0556918 8.96166 -0.0558927 9.32345 0.167159 9.54674C0.167293 9.54688 0.167461 9.54704 0.167595 9.54718L6.45313 15.8327C6.67628 16.0558 7.03798 16.0558 7.2611 15.8327L15.8323 7.26151C15.9396 7.15424 15.9998 7.0087 15.9997 6.85696V0.571424C15.9997 0.25583 15.7439 0 15.4283 0ZM11.9998 5.14272C11.3687 5.14272 10.857 4.63106 10.857 3.9999C10.857 3.36875 11.3687 2.85709 11.9998 2.85709C12.631 2.85709 13.1426 3.36875 13.1426 3.9999C13.1426 4.63106 12.631 5.14272 11.9998 5.14272Z" fill="#ECECEC"/>
</svg>
