<svg width="160" height="160" viewBox="0 0 160 160" fill="none" xmlns="http://www.w3.org/2000/svg">
<circle cx="80" cy="80" r="80" fill="#ECECEC"/>
<path d="M128.936 76.3226H127.323V74.9839C127.358 73.2955 126.745 71.6577 125.609 70.4082C124.473 69.1587 122.9 68.3926 121.216 68.2678C120.341 68.2209 119.466 68.3528 118.643 68.6553C117.821 68.9579 117.069 69.4248 116.433 70.0276C115.797 70.6304 115.29 71.3564 114.944 72.1614C114.598 72.9664 114.42 73.8335 114.419 74.7097V84.3871C114.416 87.8081 113.055 91.0879 110.636 93.5069C108.217 95.9258 104.937 97.2865 101.516 97.2904H70.8711C66.1673 97.2959 61.6578 99.1669 58.3318 102.493C55.0057 105.819 53.1347 110.329 53.1292 115.032V131.161C53.1292 132.445 53.6389 133.675 54.5464 134.583C55.4538 135.49 56.6846 136 57.9679 136H103.129C104.412 136 105.643 135.49 106.551 134.583C107.458 133.675 107.968 132.445 107.968 131.161V116.598C114.946 116.178 121.5 113.113 126.296 108.026C131.091 102.94 133.766 96.2162 133.774 89.2258V81.1613C133.774 79.878 133.265 78.6473 132.357 77.7398C131.45 76.8324 130.219 76.3226 128.936 76.3226Z" fill="#00A3FF"/>
<path d="M85.387 55.3547C80.2551 55.359 75.3346 57.3995 71.7058 61.0284C68.077 64.6572 66.0364 69.5777 66.0322 74.7096C66.0295 74.8013 66.0349 74.893 66.0483 74.9838C66.1024 78.8003 67.2837 82.5157 69.4438 85.6627C71.6038 88.8096 74.6461 91.2476 78.1881 92.6701C81.7301 94.0926 85.6136 94.4361 89.3503 93.6573C93.0869 92.8785 96.5099 91.0122 99.1887 88.2932C101.868 85.5741 103.683 82.1238 104.406 78.3759C105.129 74.6281 104.727 70.7501 103.252 67.2297C101.777 63.7093 99.2941 60.7036 96.1153 58.5907C92.9365 56.4778 89.204 55.3519 85.387 55.3547ZM85.387 90.8386C81.3376 90.8297 77.4389 89.302 74.4614 86.5575C71.4839 83.813 69.6444 80.0513 69.3064 76.016C71.9193 75.4193 77.5644 73.8064 80.7741 70.516C83.387 72.387 89.8709 75.9676 101.435 76.2902C101.037 80.2723 99.1757 83.9648 96.2108 86.6526C93.2459 89.3404 89.3889 90.8321 85.387 90.8386Z" fill="#00A3FF"/>
<path d="M90.2258 36C88.0877 36.0026 86.038 36.853 84.5262 38.3649C83.0143 39.8767 82.1639 41.9265 82.1613 44.0645V57.0097C80.6844 55.8675 78.8514 55.2838 76.986 55.3617C75.1206 55.4396 73.3426 56.1741 71.9661 57.4355C71.3802 55.8091 70.2849 54.4154 68.8432 53.4616C67.4015 52.5077 65.6905 52.0448 63.9645 52.1415C62.2386 52.2383 60.59 52.8897 59.2639 53.9987C57.9379 55.1077 57.0053 56.6151 56.6048 58.2968C55.1769 57.1033 53.3772 56.4456 51.5161 56.4371C49.3781 56.4397 47.3283 57.2901 45.8165 58.802C44.3046 60.3138 43.4542 62.3636 43.4516 64.5016V71.4839H41.8387C40.5554 71.4839 39.3247 71.9937 38.4172 72.9011C37.5098 73.8085 37 75.0393 37 76.3226V103.742C37.0038 107.163 38.3645 110.443 40.7835 112.862C43.2025 115.281 46.4823 116.641 49.9032 116.645H85.3871C88.8081 116.641 92.0878 115.281 94.5068 112.862C96.9258 110.443 98.2865 107.163 98.2903 103.742V44.0645C98.2878 41.9265 97.4373 39.8767 95.9254 38.3649C94.4136 36.853 92.3639 36.0026 90.2258 36ZM72.4839 69.871V63.4194C72.4839 62.136 72.9937 60.9053 73.9011 59.9979C74.8085 59.0904 76.0393 58.5806 77.3226 58.5806C78.6059 58.5806 79.8366 59.0904 80.7441 59.9979C81.6515 60.9053 82.1613 62.136 82.1613 63.4194V71.4839C82.1613 72.7672 81.6515 73.9979 80.7441 74.9054C79.8366 75.8128 78.6059 76.3226 77.3226 76.3226C76.0393 76.3226 74.8085 75.8128 73.9011 74.9054C72.9937 73.9979 72.4839 72.7672 72.4839 71.4839V69.871ZM59.5806 60.1935C59.5806 58.9102 60.0904 57.6795 60.9979 56.7721C61.9053 55.8646 63.136 55.3548 64.4194 55.3548C65.7027 55.3548 66.9334 55.8646 67.8408 56.7721C68.7483 57.6795 69.2581 58.9102 69.2581 60.1935V69.871C69.2581 71.1543 68.7483 72.385 67.8408 73.2925C66.9334 74.1999 65.7027 74.7097 64.4194 74.7097C63.136 74.7097 61.9053 74.1999 60.9979 73.2925C60.0904 72.385 59.5806 71.1543 59.5806 69.871V60.1935ZM46.6774 64.5016C46.6774 63.2183 47.1872 61.9876 48.0946 61.0801C49.0021 60.1727 50.2328 59.6629 51.5161 59.6629C52.7994 59.6629 54.0302 60.1727 54.9376 61.0801C55.845 61.9876 56.3548 63.2183 56.3548 64.5016V71.4839H46.6774V64.5016ZM95.0645 103.742C95.062 106.308 94.0415 108.768 92.2272 110.582C90.4129 112.396 87.9529 113.417 85.3871 113.419H49.9032C47.3374 113.417 44.8774 112.396 43.0631 110.582C41.2488 108.768 40.2284 106.308 40.2258 103.742V76.3226C40.2258 75.8948 40.3957 75.4846 40.6982 75.1821C41.0007 74.8796 41.4109 74.7097 41.8387 74.7097H54.7419C56.0252 74.7097 57.256 75.2195 58.1634 76.1269C59.0709 77.0343 59.5806 78.2651 59.5806 79.5484C59.5806 80.8317 59.0709 82.0624 58.1634 82.9699C57.256 83.8773 56.0252 84.3871 54.7419 84.3871L47.8226 84.4823C47.494 84.5786 47.2051 84.7783 46.9989 85.0516C46.7926 85.325 46.6799 85.6576 46.6774 86C46.6774 86.4278 46.8474 86.838 47.1498 87.1405C47.4523 87.443 47.8626 87.6129 48.2903 87.6129H52.4839C54.7674 88.3403 56.7608 89.7745 58.1764 91.7084C59.592 93.6423 60.3565 95.976 60.3597 98.3726C60.3597 98.8004 60.5296 99.2106 60.8321 99.5131C61.1346 99.8156 61.5448 99.9855 61.9726 99.9855C62.4003 99.9855 62.8106 99.8156 63.1131 99.5131C63.4156 99.2106 63.5855 98.8004 63.5855 98.3726C63.5835 96.1633 63.0763 93.9837 62.1026 92.0006C61.129 90.0174 59.7146 88.2832 57.9677 86.9306C59.7078 86.1917 61.1275 84.8566 61.9718 83.165C62.8161 81.4735 63.0296 79.5364 62.5742 77.7016C63.9528 78.0452 65.3988 78.0083 66.7582 77.5951C68.1176 77.1818 69.3394 76.4076 70.2935 75.3548C71.1495 76.9248 72.5045 78.1644 74.1442 78.8777C75.7839 79.5909 77.6146 79.737 79.3467 79.2928C81.0787 78.8486 82.6132 77.8395 83.7072 76.4251C84.8012 75.0108 85.3924 73.272 85.3871 71.4839V44.0645C85.3871 42.7812 85.8969 41.5505 86.8043 40.643C87.7118 39.7356 88.9425 39.2258 90.2258 39.2258C91.5091 39.2258 92.7399 39.7356 93.6473 40.643C94.5547 41.5505 95.0645 42.7812 95.0645 44.0645V103.742Z" fill="#15023C"/>
</svg>
